<svg width="150" height="150" viewBox="0 0 150 150" fill="none" xmlns="http://www.w3.org/2000/svg">
<path d="M75 150C116.421 150 150 116.421 150 75C150 33.5786 116.421 0 75 0C33.5786 0 0 33.5786 0 75C0 116.421 33.5786 150 75 150Z" fill="url(#paint0_linear_1_4)"/>
<path d="M120 124H30V39.8761C34.242 39.872 38.3089 38.4087 41.3084 35.8073C44.308 33.206 45.9952 29.6789 46 26H104C103.996 27.8224 104.408 29.6275 105.213 31.3109C106.018 32.9942 107.2 34.5224 108.691 35.8069C110.172 37.1001 111.934 38.1256 113.875 38.8241C115.817 39.5226 117.898 39.8801 120 39.8761V124Z" fill="white"/>
<path d="M75 91C88.2548 91 99 80.2548 99 67C99 53.7452 88.2548 43 75 43C61.7452 43 51 53.7452 51 67C51 80.2548 61.7452 91 75 91Z" fill="#8250CA"/>
<path d="M97 109H53C51.3431 109 50 110.343 50 112C50 113.657 51.3431 115 53 115H97C98.6569 115 100 113.657 100 112C100 110.343 98.6569 109 97 109Z" fill="#BEBEBE"/>
<path d="M88 97H62C60.3431 97 59 98.3431 59 100C59 101.657 60.3431 103 62 103H88C89.6569 103 91 101.657 91 100C91 98.3431 89.6569 97 88 97Z" fill="#BEBEBE"/>
<path d="M83.4853 78.3138L75 69.8286L66.5147 78.3138L63.6863 75.4854L72.1716 67.0001L63.6863 58.5148L66.5147 55.6864L75 64.1717L83.4853 55.6864L86.3137 58.5148L77.8284 67.0001L86.3137 75.4854L83.4853 78.3138Z" fill="white"/>
<defs>
<linearGradient id="paint0_linear_1_4" x1="75" y1="0" x2="75" y2="150" gradientUnits="userSpaceOnUse">
<stop stop-color="#DAE7FF"/>
<stop offset="1" stop-color="#DAE7FF"/>
</linearGradient>
</defs>
</svg>
